<svg width="24" height="24" viewBox="0 0 24 24" fill="none" xmlns="http://www.w3.org/2000/svg">
<path d="M9.17 7.00005C8.98375 7.18741 8.87921 7.44087 8.87921 7.70505C8.87921 7.96924 8.98375 8.22269 9.17 8.41005L12.71 12.0001L9.17 15.5401C8.98375 15.7274 8.87921 15.9809 8.87921 16.2451C8.87921 16.5092 8.98375 16.7627 9.17 16.9501C9.26297 17.0438 9.37357 17.1182 9.49543 17.1689C9.61729 17.2197 9.74799 17.2458 9.88 17.2458C10.012 17.2458 10.1427 17.2197 10.2646 17.1689C10.3864 17.1182 10.497 17.0438 10.59 16.9501L14.83 12.7101C14.9237 12.6171 14.9981 12.5065 15.0489 12.3846C15.0997 12.2628 15.1258 12.1321 15.1258 12.0001C15.1258 11.868 15.0997 11.7373 15.0489 11.6155C14.9981 11.4936 14.9237 11.383 14.83 11.2901L10.59 7.00005C10.497 6.90632 10.3864 6.83193 10.2646 6.78116C10.1427 6.73039 10.012 6.70425 9.88 6.70425C9.74799 6.70425 9.61729 6.73039 9.49543 6.78116C9.37357 6.83193 9.26297 6.90632 9.17 7.00005Z" fill="white"/>
</svg>
