<svg width="208" height="25" viewBox="0 0 208 25" fill="none" xmlns="http://www.w3.org/2000/svg">
<path d="M0.82 19V0.799999H10.128C12.52 0.799999 14.3053 1.242 15.484 2.126C16.6627 2.99267 17.252 4.13667 17.252 5.558C17.252 6.494 17.0007 7.31733 16.498 8.028C16.0127 8.72133 15.3193 9.276 14.418 9.692C13.534 10.0907 12.4767 10.29 11.246 10.29L11.766 9.042C13.0487 9.042 14.1667 9.24133 15.12 9.64C16.0733 10.0213 16.81 10.5847 17.33 11.33C17.8673 12.058 18.136 12.9507 18.136 14.008C18.136 15.5853 17.4947 16.816 16.212 17.7C14.9467 18.5667 13.092 19 10.648 19H0.82ZM5.916 15.282H10.232C11.116 15.282 11.7833 15.1347 12.234 14.84C12.702 14.528 12.936 14.06 12.936 13.436C12.936 12.812 12.702 12.3527 12.234 12.058C11.7833 11.746 11.116 11.59 10.232 11.59H5.552V8.028H9.452C10.3187 8.028 10.9687 7.88067 11.402 7.586C11.8353 7.29133 12.052 6.84933 12.052 6.26C12.052 5.67067 11.8353 5.23733 11.402 4.96C10.9687 4.66533 10.3187 4.518 9.452 4.518H5.916V15.282ZM20.8024 19V0.799999H29.1224C30.7864 0.799999 32.2164 1.06867 33.4124 1.606C34.6258 2.14333 35.5618 2.92333 36.2204 3.946C36.8791 4.95133 37.2084 6.14733 37.2084 7.534C37.2084 8.90333 36.8791 10.0907 36.2204 11.096C35.5618 12.084 34.6258 12.8467 33.4124 13.384C32.2164 13.904 30.7864 14.164 29.1224 14.164H23.6624L25.9504 12.006V19H20.8024ZM32.0604 19L27.5364 12.37H33.0224L37.5724 19H32.0604ZM25.9504 12.552L23.6624 10.186H28.8104C29.8851 10.186 30.6824 9.952 31.2024 9.484C31.7398 9.016 32.0084 8.366 32.0084 7.534C32.0084 6.68467 31.7398 6.026 31.2024 5.558C30.6824 5.09 29.8851 4.856 28.8104 4.856H23.6624L25.9504 2.49V12.552ZM37.8645 19L45.8985 0.799999H50.9685L59.0285 19H53.6725L47.3805 3.322H49.4085L43.1165 19H37.8645ZM42.2585 15.464L43.5845 11.668H52.4765L53.8025 15.464H42.2585ZM60.488 19V0.799999H64.726L74.762 12.916H72.76V0.799999H77.804V19H73.566L63.53 6.884H65.532V19H60.488ZM81.4352 19V0.799999H90.0412C92.0519 0.799999 93.8199 1.17267 95.3452 1.918C96.8706 2.66333 98.0579 3.712 98.9072 5.064C99.7739 6.416 100.207 8.028 100.207 9.9C100.207 11.7547 99.7739 13.3667 98.9072 14.736C98.0579 16.088 96.8706 17.1367 95.3452 17.882C93.8199 18.6273 92.0519 19 90.0412 19H81.4352ZM86.5832 14.892H89.8332C90.8732 14.892 91.7746 14.7013 92.5372 14.32C93.3172 13.9213 93.9239 13.3493 94.3572 12.604C94.7906 11.8413 95.0072 10.94 95.0072 9.9C95.0072 8.84267 94.7906 7.94133 94.3572 7.196C93.9239 6.45067 93.3172 5.88733 92.5372 5.506C91.7746 5.10733 90.8732 4.908 89.8332 4.908H86.5832V14.892Z" fill="#FF005C"/>
<path d="M119.738 19.13C118.386 19.13 117.129 18.9047 115.968 18.454C114.824 17.986 113.827 17.336 112.978 16.504C112.129 15.672 111.47 14.7013 111.002 13.592C110.534 12.4653 110.3 11.2347 110.3 9.9C110.3 8.56533 110.534 7.34333 111.002 6.234C111.47 5.10733 112.129 4.128 112.978 3.296C113.845 2.464 114.85 1.82267 115.994 1.372C117.138 0.903999 118.386 0.669999 119.738 0.669999C121.021 0.669999 122.217 0.877999 123.326 1.294C124.453 1.71 125.415 2.34267 126.212 3.192L125.38 4.05C124.6 3.28733 123.733 2.74133 122.78 2.412C121.844 2.06533 120.847 1.892 119.79 1.892C118.629 1.892 117.545 2.09133 116.54 2.49C115.552 2.88867 114.685 3.452 113.94 4.18C113.212 4.908 112.64 5.75733 112.224 6.728C111.825 7.69867 111.626 8.756 111.626 9.9C111.626 11.044 111.825 12.1013 112.224 13.072C112.64 14.0427 113.212 14.892 113.94 15.62C114.685 16.348 115.552 16.9113 116.54 17.31C117.545 17.7087 118.629 17.908 119.79 17.908C120.847 17.908 121.844 17.7433 122.78 17.414C123.733 17.0673 124.6 16.504 125.38 15.724L126.212 16.582C125.415 17.4313 124.453 18.0727 123.326 18.506C122.217 18.922 121.021 19.13 119.738 19.13ZM135.012 19.104C133.643 19.104 132.429 18.8093 131.372 18.22C130.332 17.6307 129.509 16.816 128.902 15.776C128.313 14.736 128.018 13.5487 128.018 12.214C128.018 10.862 128.295 9.67467 128.85 8.652C129.422 7.612 130.202 6.79733 131.19 6.208C132.178 5.61867 133.287 5.324 134.518 5.324C135.749 5.324 136.849 5.61 137.82 6.182C138.808 6.754 139.579 7.56 140.134 8.6C140.706 9.62267 140.992 10.81 140.992 12.162C140.992 12.214 140.983 12.2747 140.966 12.344C140.966 12.396 140.966 12.4567 140.966 12.526H128.98V11.512H140.264L139.744 12.006C139.761 10.9487 139.536 10.004 139.068 9.172C138.617 8.32267 138.002 7.664 137.222 7.196C136.442 6.71067 135.541 6.468 134.518 6.468C133.513 6.468 132.611 6.71067 131.814 7.196C131.034 7.664 130.419 8.32267 129.968 9.172C129.517 10.004 129.292 10.9573 129.292 12.032V12.266C129.292 13.3753 129.535 14.3633 130.02 15.23C130.523 16.0793 131.207 16.7467 132.074 17.232C132.941 17.7 133.929 17.934 135.038 17.934C135.905 17.934 136.711 17.778 137.456 17.466C138.219 17.154 138.86 16.6773 139.38 16.036L140.134 16.894C139.545 17.622 138.799 18.1767 137.898 18.558C137.014 18.922 136.052 19.104 135.012 19.104ZM152.078 19.104C150.882 19.104 149.798 18.8267 148.828 18.272C147.874 17.7173 147.112 16.9287 146.54 15.906C145.985 14.866 145.708 13.6353 145.708 12.214C145.708 10.7927 145.985 9.57067 146.54 8.548C147.112 7.508 147.874 6.71067 148.828 6.156C149.798 5.60133 150.882 5.324 152.078 5.324C153.36 5.324 154.504 5.61867 155.51 6.208C156.532 6.78 157.33 7.586 157.902 8.626C158.491 9.666 158.786 10.862 158.786 12.214C158.786 13.566 158.491 14.762 157.902 15.802C157.33 16.842 156.532 17.6567 155.51 18.246C154.504 18.818 153.36 19.104 152.078 19.104ZM145.266 24.044V5.428H146.514V9.874L146.306 12.24L146.566 14.606V24.044H145.266ZM152 17.934C153.04 17.934 153.976 17.7 154.808 17.232C155.64 16.7467 156.29 16.0707 156.758 15.204C157.243 14.3373 157.486 13.3407 157.486 12.214C157.486 11.07 157.243 10.0733 156.758 9.224C156.29 8.35733 155.64 7.69 154.808 7.222C153.976 6.73667 153.04 6.494 152 6.494C150.96 6.494 150.024 6.73667 149.192 7.222C148.377 7.69 147.727 8.35733 147.242 9.224C146.774 10.0733 146.54 11.07 146.54 12.214C146.54 13.3407 146.774 14.3373 147.242 15.204C147.727 16.0707 148.377 16.7467 149.192 17.232C150.024 17.7 150.96 17.934 152 17.934ZM163.013 19V5.428H168.733C170.224 5.428 171.402 5.72267 172.269 6.312C173.136 6.90133 173.569 7.75933 173.569 8.886C173.569 9.99533 173.144 10.836 172.295 11.408C171.463 11.98 170.38 12.266 169.045 12.266L169.409 11.876C171.004 11.876 172.174 12.1707 172.919 12.76C173.664 13.3493 174.037 14.216 174.037 15.36C174.037 16.5213 173.612 17.4227 172.763 18.064C171.931 18.688 170.64 19 168.889 19H163.013ZM164.287 17.934H168.863C170.128 17.934 171.09 17.726 171.749 17.31C172.408 16.894 172.737 16.2267 172.737 15.308C172.737 14.372 172.442 13.696 171.853 13.28C171.281 12.8467 170.354 12.63 169.071 12.63H164.287V17.934ZM164.287 11.616H168.655C169.799 11.616 170.683 11.3993 171.307 10.966C171.948 10.5327 172.269 9.89133 172.269 9.042C172.269 8.19267 171.948 7.56 171.307 7.144C170.683 6.71067 169.799 6.494 168.655 6.494H164.287V11.616ZM178.654 19V5.428H179.954V16.998L189.626 5.428H190.77V19H189.47V7.43L179.798 19H178.654ZM201.862 19.104C200.545 19.104 199.366 18.8093 198.326 18.22C197.304 17.6307 196.489 16.816 195.882 15.776C195.293 14.736 194.998 13.5487 194.998 12.214C194.998 10.862 195.293 9.666 195.882 8.626C196.489 7.586 197.304 6.78 198.326 6.208C199.366 5.61867 200.545 5.324 201.862 5.324C202.954 5.324 203.942 5.532 204.826 5.948C205.728 6.364 206.456 6.988 207.01 7.82L206.048 8.522C205.563 7.82867 204.956 7.31733 204.228 6.988C203.5 6.65867 202.712 6.494 201.862 6.494C200.805 6.494 199.852 6.73667 199.002 7.222C198.17 7.69 197.512 8.35733 197.026 9.224C196.558 10.0733 196.324 11.07 196.324 12.214C196.324 13.358 196.558 14.3633 197.026 15.23C197.512 16.0793 198.17 16.7467 199.002 17.232C199.852 17.7 200.805 17.934 201.862 17.934C202.712 17.934 203.5 17.7693 204.228 17.44C204.956 17.1107 205.563 16.5993 206.048 15.906L207.01 16.608C206.456 17.44 205.728 18.064 204.826 18.48C203.942 18.896 202.954 19.104 201.862 19.104Z" fill="black"/>
</svg>
